<svg width="16" height="16" viewBox="0 0 16 16" fill="none" xmlns="http://www.w3.org/2000/svg">
<g clip-path="url(#clip0)">
<path d="M7.56887 0V2.53897H8.43126V0H7.56879H7.56887ZM4.0474 0.763L3.34084 1.25771L4.79688 3.33699L5.50306 2.84227L4.0474 0.763ZM11.9525 0.763L10.4969 2.84228L11.2032 3.337L12.6592 1.25771L11.9527 0.763H11.9525ZM7.99988 3.23365C5.89019 3.23365 4.17998 4.51476 4.17998 6.09532L6.35027 12.668H9.64987L11.82 6.09532C11.82 4.51479 10.1099 3.23365 8.00008 3.23365H7.99988ZM1.13956 3.99564L0.84491 4.80649L3.22956 5.67468L3.52531 4.86421L1.13951 3.99564H1.13956ZM14.8604 3.99564L12.4746 4.86428L12.7693 5.67484L15.1551 4.80651L14.8604 3.99564ZM3.41011 7.70241L0.95811 8.36009L1.18059 9.19251L3.63259 8.53577L3.41015 7.70241H3.41011ZM12.5898 7.70241L12.3675 8.53576L14.8195 9.19239L15.0418 8.35996L12.5898 7.70239V7.70241ZM6.30216 13.1471V14.2896H9.69799V13.1473H6.30218L6.30216 13.1471ZM6.30216 14.8575V16H9.69799V14.8577H6.30218L6.30216 14.8575Z" fill="#A6FF87"/>
</g>
<defs>
<clipPath id="clip0">
<rect width="16" height="16" fill="white"/>
</clipPath>
</defs>
</svg>
