<svg width="15" height="13" viewBox="0 0 15 13" fill="none" xmlns="http://www.w3.org/2000/svg">
<path d="M2.20326 12.6667H2.86946V4.00001H2.20326C1.84988 4.00001 1.51098 4.14048 1.2611 4.39053C1.01123 4.64058 0.87085 4.97972 0.87085 5.33334V11.3334C0.87085 11.687 1.01123 12.0261 1.2611 12.2762C1.51098 12.5262 1.84988 12.6667 2.20326 12.6667ZM12.8625 4.00001H8.19909L8.94657 1.75467C9.01326 1.55428 9.03143 1.3409 8.99958 1.13211C8.96772 0.923311 8.88676 0.725077 8.76335 0.553731C8.63993 0.382384 8.47761 0.242828 8.28974 0.146557C8.10188 0.0502863 7.89384 5.47419e-05 7.68278 0H7.53288L4.20187 3.62534V12.6667H11.5301L14.1363 6.93601L14.1949 6.66668V5.33334C14.1949 4.97972 14.0545 4.64058 13.8047 4.39053C13.5548 4.14048 13.2159 4.00001 12.8625 4.00001V4.00001Z" fill="#A6FF87"/>
</svg>
