<svg width="15" height="16" viewBox="0 0 15 16" fill="none" xmlns="http://www.w3.org/2000/svg">
<path fill-rule="evenodd" clip-rule="evenodd" d="M7.86666 0C7.17714 0 6.02494 0.265 4.9407 0.56C3.83147 0.86 2.71325 1.215 2.0557 1.43C1.78079 1.52085 1.53705 1.68747 1.35251 1.9107C1.16796 2.13394 1.05009 2.40474 1.01243 2.692C0.416843 7.169 1.79888 10.487 3.47571 12.682C4.1868 13.621 5.03466 14.4478 5.99097 15.135C6.3767 15.408 6.73445 15.617 7.03824 15.76C7.31804 15.892 7.61883 16 7.86666 16C8.11449 16 8.41428 15.892 8.69509 15.76C9.06131 15.5819 9.41168 15.3728 9.74236 15.135C10.6987 14.4479 11.5465 13.621 12.2576 12.682C13.9344 10.487 15.3165 7.169 14.7209 2.692C14.6833 2.4046 14.5655 2.13364 14.3809 1.91023C14.1964 1.68683 13.9526 1.52003 13.6776 1.429C12.7231 1.11581 11.7611 0.825729 10.7926 0.559C9.70838 0.266 8.55618 0 7.86666 0ZM10.0112 5.146C10.105 5.05211 10.2322 4.99937 10.3649 4.99937C10.4976 4.99937 10.6249 5.05211 10.7187 5.146C10.8125 5.23989 10.8652 5.36722 10.8652 5.5C10.8652 5.63278 10.8125 5.76011 10.7187 5.854L7.72076 8.854C7.67435 8.90056 7.61921 8.93751 7.55851 8.96271C7.49781 8.98792 7.43273 9.00089 7.36701 9.00089C7.30129 9.00089 7.23621 8.98792 7.17551 8.96271C7.1148 8.93751 7.05967 8.90056 7.01325 8.854L5.5143 7.354C5.46784 7.30751 5.43099 7.25232 5.40585 7.19158C5.38071 7.13084 5.36777 7.06574 5.36777 7C5.36777 6.93426 5.38071 6.86916 5.40585 6.80842C5.43099 6.74768 5.46784 6.69249 5.5143 6.646C5.56075 6.59951 5.6159 6.56264 5.6766 6.53748C5.7373 6.51232 5.80235 6.49937 5.86805 6.49937C5.93375 6.49937 5.9988 6.51232 6.0595 6.53748C6.1202 6.56264 6.17535 6.59951 6.22181 6.646L7.36701 7.793L10.0112 5.146V5.146Z" fill="#A6FF87"/>
</svg>
